<?xml version="1.0" encoding="UTF-8"?>
<svg id="Layer_2" data-name="Layer 2" xmlns="http://www.w3.org/2000/svg" viewBox="0 0 181.26 186.58">
  <defs>
    <style>
      .cls-1 {
        fill: #51d7ff;
      }
    </style>
  </defs>
  <g id="Layer_1-2" data-name="Layer 1">
    <g>
      <path class="cls-1" d="m63.83,45.02c2.65-2.83,16.35-16.9,38.81-17.87,23.03-.99,38.12,12.53,40.85,15.06,1.97-2.02,6.53-7.27,6.03-13.79-.56-7.24-7.01-11.68-13.84-16.23C127.94,7.04,115.99-.92,98.55.09c-21.2,1.22-34.11,14.75-36.72,17.62-6.14,3.75-12.28,7.49-18.43,11.24,6.81,5.36,13.62,10.72,20.43,16.09Z"/>
      <path class="cls-1" d="m0,27.15c.98,3.7,2.93,9.12,7.15,14.3,4.64,5.69,9.38,7.84,17.87,13.02,4.9,2.99,11.93,7.53,20.17,13.79l41.76,30.51c2.59,2.38,7.36,5.96,13.64,6.26,6.11.29,10.6-2.67,15.06-5.62,31.09-20.5,30.54-20.03,33.7-22.47,12.35-9.53,18.59-14.38,21.45-18.38,7.56-10.59,9.47-21.98,9.96-29.36.06,11.82.11,23.64.17,35.46-.92,4.27-2.87,10.67-7.28,17.34-2.92,4.42-6.09,7.69-8.72,10.01-5.03,3.39-12.34,8.36-21.07,14.51-32.44,22.86-34.26,26.56-41.74,26.59-6.56.03-7.53-2.8-44.94-28.85-10.6-7.38-9.68-6.57-17.36-12-15.55-10.99-28.33-20.7-37.79-28.09-.68-12.34-1.36-24.68-2.04-37.02Z"/>
      <path class="cls-1" d="m32.51,141.28c-1.02-8.96-2.04-17.93-3.06-26.89-9.65-8.51-19.29-17.02-28.94-25.53-.4,7.25-.05,13.28.42,17.71.71,6.76,1.72,10.2,4.01,13.27,1.67,2.25,3.45,3.52,4.36,4.17,5.58,4.02,13.34,9.84,23.22,17.27Z"/>
      <path class="cls-1" d="m62.47,135.83c5.01,2.99,12.91,7.83,22.47,14.3,8.71,5.9,11.28,8.06,15.66,8.85,4.21.76,13.96.96,28.26-13.28,11.02-7.46,22.03-14.92,33.05-22.39,4.7-3.9,12.71-11.79,16.49-24.16,1.06-3.47,1.61-6.72,1.87-9.62.95,6.7,3.67,30.28-7.34,46.18-1.7,2.46-5.31,7.01-10.02,11.69-6.26,6.22-12.29,10.51-16.68,13.28-8.93,6.14-16.29,11.14-21.45,14.64-13.58,9.2-16.46,11-21.11,11.23-6.31.31-11.95-2.16-24.51-11.91-3.9-3.02-8.8-7-14.3-11.91-.79-8.96-1.59-17.93-2.38-26.89Z"/>
    </g>
  </g>
</svg>